<svg xmlns="http://www.w3.org/2000/svg" data-name="Layer 1" version="1.1" viewBox="0 0 2958.4 600.28">
    <defs>
        <style>.cls-1{fill:#040404;}.cls-2{fill:#050505;}.cls-3{fill:#0e0e0e;}.cls-4{fill:#0f0f0f;}.cls-5{fill:#dcdcdc;}.cls-6{fill:#fefefe;}.cls-7{fill:#626262;}.cls-8{fill:#707070;}.cls-9{fill:#6f6f6f;}.cls-10{fill:#303030;}.cls-11{fill:#717171;}.cls-12{fill:#595959;}.cls-13{fill:#4c4c4c;}.cls-14{fill:#696969;}.cls-15{fill:#666;}.cls-16{fill:#242424;}.cls-17{fill:#3d3d3d;}.cls-18{fill:#1c1c1c;}.cls-19{fill:#4a4a4a;}.cls-20{fill:#1e1e1e;}.cls-21{fill:#1f1f1f;}.cls-22{fill:#1d1d1d;}.cls-23{fill:#515151;}.cls-24{fill:#424242;}.cls-25{fill:#3b3b3b;}.cls-26{fill:#4f4f4f;}.cls-27{fill:#5a5a5a;}.cls-28{fill:#202020;}.cls-29{fill:#797979;}.cls-30{fill:#363636;}.cls-31{fill:#979797;}.cls-32{fill:#4e4e4e;}.cls-33{fill:#5b5b5b;}.cls-34{fill:#535353;}.cls-35{fill:#232323;}.cls-36{fill:#222;}.cls-37{fill:#333;}.cls-38{fill:#7e7e7e;}.cls-39{fill:#737373;}.cls-40{fill:#727272;}.cls-41{fill:#4d4d4d;}.cls-42{fill:#e5e5e5;}.cls-43{fill:#bebebe;}.cls-44{fill:#1b1b1b;}.cls-45{fill:#b1b1b1;}.cls-46{fill:#f6f6f6;}.cls-47{fill:#d5d5d5;}.cls-48{fill:#fbfbfb;}.cls-49{fill:#f9f9f9;}.cls-50{fill:#f7f7f7;}.cls-51{fill:#d9d9d9;}.cls-52{fill:#d8d8d8;}.cls-53{fill:#dedede;}.cls-54{fill:#e0e0e0;}.cls-55{fill:#464646;}.cls-56{fill:#5c5c5c;}.cls-57{fill:#585858;}.cls-58{fill:#434343;}.cls-59{fill:#3f3f3f;}</style>
    </defs>
    <path transform="translate(-5720.9 -6899.5)" d="M7067.55,7441.24c-38.67,0-77.33-.07-116,.11-4.2,0-5.15-1.05-5.14-5.17q.19-114,0-227.93c0-3.84.86-4.89,4.82-4.88q116.23.2,232.48,0c3.75,0,5,.71,5,4.78q-.39,25.73,0,51.48c.05,4-1.06,4.86-4.92,4.85-56.83-.13-113.66,0-170.49-.19-4.45,0-6.08.94-5.7,5.63a123.35,123.35,0,0,1,0,17c-.22,3.69.77,4.73,4.59,4.7,23.67-.2,47.33-.1,71-.1,18.66,0,37.33.1,56-.09,3.54,0,4.4.92,4.36,4.4q-.29,26,0,52c.05,3.86-.88,4.95-4.86,4.93-41.83-.16-83.66,0-125.49-.22-4.74,0-5.92,1.38-5.6,5.81a116.74,116.74,0,0,1,0,16c-.3,4.39.81,5.87,5.59,5.84,35.66-.23,71.33-.13,107-.13,21.17,0,42.33.08,63.49-.07,3.64,0,5.1.54,5,4.72-.27,17.33-.23,34.66,0,52,0,3.7-.8,4.71-4.62,4.7C7145.21,7441.18,7106.38,7441.24,7067.55,7441.24Z"/>
    <path transform="translate(-5720.9 -6899.5)" d="M8279,6910.55c38.65,0,77.3.05,116-.08,3.73,0,5,.69,5,4.78q-.39,25.72,0,51.46c.06,4-1.11,4.87-5,4.86-56.82-.12-113.63,0-170.44-.2-4.64,0-5.9,1.24-5.58,5.7a131.79,131.79,0,0,1,0,17c-.23,3.72.81,4.66,4.59,4.65,34.32-.17,68.65-.1,103-.1,8,0,16,.14,24-.08,3.17-.08,4.2.68,4.17,4q-.27,26.48,0,53c0,3.63-1.1,4.27-4.46,4.26-42-.12-84,0-126-.17-4,0-5.58.8-5.31,5.1a165.91,165.91,0,0,1,0,18c-.15,3.5.94,4.5,4.45,4.47,20.33-.16,40.65-.08,61-.08,36.49,0,73,.14,109.46-.15,5.29,0,6.17,1.54,6.08,6.34-.29,16.82-.23,33.65,0,50.47,0,3.8-1,4.66-4.73,4.66q-116.46-.18-232.92,0c-3.8,0-4.66-1-4.65-4.73q.17-114.42,0-228.86c0-3.55,1-4.37,4.43-4.36C8201,6910.6,8240,6910.55,8279,6910.55Z"/>
    <path transform="translate(-5720.9 -6899.5)" d="M6989.21,6910.55c38.66,0,77.31.06,116-.09,3.91,0,4.91,1,4.86,4.87-.22,17-.31,34,0,51,.1,4.72-1.49,5.29-5.6,5.28-56.65-.13-113.3,0-169.95-.2-4.34,0-5.76.92-5.39,5.38a111.78,111.78,0,0,1,0,16.47c-.28,4.21.69,5.52,5.28,5.49,41.48-.21,83,0,124.46-.24,4.74,0,6.06,1,6,5.86q-.54,25,0,50c.1,4.82-1.51,5.52-5.79,5.5-41.49-.15-83,0-124.46-.2-4.39,0-5.78,1-5.46,5.44a183.72,183.72,0,0,1,0,18.48c-.09,2.91.9,3.68,3.71,3.63,8.32-.16,16.66-.06,25-.06,49,0,98,.06,146.95-.1,4.14,0,5.28,1,5.22,5.18-.25,17.32-.18,34.65,0,52,0,3.18-.7,4.26-4.12,4.26q-117-.15-233.92,0c-3.38,0-4.16-1-4.16-4.22q.12-114.93,0-229.87c0-3.85,1.72-3.8,4.47-3.8Q6930.74,6910.59,6989.21,6910.55Z"/>
    <path transform="translate(-5720.9 -6899.5)" d="M7362.76,6928.46c26.87,19.82,35.27,61,18.3,91.93-12.43,22.64-31.76,35.84-57.48,39.08-4.59.58-4.69,1.42-2.4,5.07q39.51,63,78.77,126.07c.86,1.38,1.66,2.79,2.88,4.85h-16.31c-17,0-34-.1-51,.09-3.41,0-5.29-1.05-7.07-3.92q-39.73-63.69-79.61-127.31c-1.9-3.06-3.83-4.31-7.48-4.21-9.65.28-19.33.26-29,0-3.42-.09-4,1.08-4,4.19.11,26.32,0,52.65.16,79,0,4.18-1.07,5.21-5.2,5.15-17.33-.24-34.66-.18-52,0-3.28,0-4.19-.83-4.18-4.15q.17-70.47,0-140.95c0-4.07,1.49-4.48,4.91-4.47,53.49.09,107,0,160.48.12,6.59,0,11.84-1.91,14.67-8.16,3.83-8.44-2-18-11.48-19a49,49,0,0,0-5-.07c-52.82,0-105.65-.09-158.47.06-4.21,0-5.17-1-5.11-5.16.25-17.16.2-34.32,0-51.48,0-3.5,1-4.42,4.45-4.42,53.83.11,107.65,0,161.48.12,11.23,0,22.21,1.67,32.38,6.86.33,1.29-.29,2-1.46,2.27-2.91-.49-5.43-2.4-8.5-2.36a98.27,98.27,0,0,0-25.57-3.58q-75.64.22-151.28,0c-2.09,0-4.33.66-6.29-.61,1.72,1.06,3.69.64,5.54.64q77.39,0,154.78,0a79.22,79.22,0,0,1,17.72,2.35,65.25,65.25,0,0,1,8.2,2.3,22.79,22.79,0,0,0,5.08,2.23,123.14,123.14,0,0,1,11.4,6.6,53.93,53.93,0,0,1,15,14.51c-1.25-4.62-6.22-7.86-8.77-12.73C7361.53,6928.58,7361.78,6927.9,7362.76,6928.46Z"/>
    <path transform="translate(-5720.9 -6899.5)" d="M6525.81,7017.43c29,22.79,34.33,68.9,11.31,100-14.82,20-35,30.63-59.87,30.8-54.65.37-109.31.09-164,.2-3.14,0-3.89-.87-3.87-3.9.14-17.66.22-35.32,0-53-.06-4,1.23-4.5,4.75-4.49q79,.17,158,.06a44.91,44.91,0,0,0,7-.4,13.42,13.42,0,0,0,11.3-12.76,13.77,13.77,0,0,0-9.85-13.5,25.09,25.09,0,0,0-7.42-.71q-43.74,0-87.48,0c-44.36-.05-77.48-34.32-76-78.62,1.1-33.95,29.07-64.92,62.73-69.57a108.2,108.2,0,0,1,14.93-1q79.74,0,159.47-.07c3.72,0,5,.67,4.95,4.76q-.39,25.73,0,51.47c0,3.9-1,4.89-4.88,4.88q-80.73-.21-161.46-.07c-10.62,0-17.33,9.17-13.68,18.48,2.14,5.44,7.12,8.59,13.87,8.6q45,0,90,0c10.41,0,20.54,1.53,30.05,6.05.32,1.28-.31,2-1.47,2.33-3.31.05-6.05-2.2-9.33-2.34a83.18,83.18,0,0,0-21.62-2.68c-30.2.07-60.4.32-90.58-.1-3.41-.59-6.38-2.36-10.16-4.09,2.9,2.94,6.11,3.34,9.15,4.17,31.6.27,63.19,0,94.77.13a51.61,51.61,0,0,1,7.46.19c1.85.42,3.67,1,5.55,1.31a9,9,0,0,1,1.47.25c1.8.6,3.68.93,5.48,1.53,2.44.84,4.92,1.58,7.35,2.45a78,78,0,0,1,17.46,11c6.64,4.68,11.15,11.18,15.34,17.95a189.69,189.69,0,0,0-12.14-18.48C6524.54,7017.52,6524.88,7016.91,6525.81,7017.43Z"/>
    <path transform="translate(-5720.9 -6899.5)" d="M7687.27,6910.59q38.49,0,77,0c43.85.06,77.12,33.29,77.19,77.09q.06,42,0,84c-.09,43.46-33.4,76.77-76.95,76.83-53.5.08-107,0-160.48.11-3.66,0-4.65-.75-4.64-4.56q.22-69.22,0-138.44c0-4.16,1.33-4.82,5-4.78,16.83.18,33.67.22,50.49,0,4.37-.07,5.87.8,5.81,5.58-.27,25.32,0,50.64-.23,76,0,4.16,1.06,5.18,5.2,5.16,32.49-.18,65-.09,97.48-.1,11.47,0,17.19-5.71,17.2-17.2q0-40.74,0-81.47c0-11.48-5.68-17-17.28-17.05q-79.24,0-158.48.09c-4,0-5.31-.66-5.23-5,.29-17.32.23-34.65,0-52,0-3.59,1-4.31,4.4-4.3C7631.61,6910.65,7659.44,6910.59,7687.27,6910.59Z"/>
    <path transform="translate(-5720.9 -6899.5)" d="M5842.56,7019.48a13.88,13.88,0,0,1,1.18-1.56q58.22-58,116.44-116.06c.56-.56,1.15-1.08,2.5-2.34v5.63q0,118.92.11,237.84c0,4.35-.94,5.54-5.4,5.46-17.16-.3-34.32-.22-51.48,0-3.48,0-4.43-.84-4.41-4.37.15-30.48.08-61,.08-91.44v-5c-2,.07-2.61,1.62-3.58,2.58-17.7,17.63-35.43,35.25-53,53-2.61,2.65-3.89,2.73-6.55,0-17.29-17.57-34.79-34.94-52.23-52.36-1.14-1.14-2.35-2.22-3.57-3.37-1.43,1.5-.78,3.07-.79,4.45q-.06,43.47,0,86.94a10.28,10.28,0,0,1-3.08,7.91q-27.15,28-54,56.18a29.3,29.3,0,0,0-2.77,4l-1.13-.91V6900a5.16,5.16,0,0,1,2.72,2.53,20,20,0,0,0,1.7,4.28,15.58,15.58,0,0,0,4.69,8c32.92,32.71,65.52,65.72,98.57,98.29,4.13,4.07,7.92,9,13.83,10.94,2.14-.37,3.43-2,4.83-3.38L5954,6914.05a15.11,15.11,0,0,0,3.79-5.2c.08-.46.81-.76.6-1.17-.29-.57.31-.14-.28.26a31,31,0,0,1-3.39,3.73q-52.79,52.77-105.58,105.52c-1.61,1.6-2.94,3.72-5.6,3.84C5842.74,7020.78,5842.2,7020.4,5842.56,7019.48Z"/>
    <path transform="translate(-5720.9 -6899.5)" d="m6063.7 7141.6c-2.44 6.62-7.51 7.22-13.83 7.11-20.61-0.39-41.22-0.15-62.64-0.15l152.17-245.07 152.37 244.79h-229.71c0-2.21 2.23-3.47 2.62-5.54 0.28-2.63 2.19-4.44 3.29-6.66 3.22-5.29 6.65-10.45 9.84-15.75 1.27-2.4 2.95-4.54 4.31-6.88 1.63-3.21 4-6 5.69-9.13 0.71-1.43 1.7-2.68 2.44-4.09 1.72-3.37 4.19-6.27 6-9.59 1.57-3.52 4.35-4.45 8.06-4.43 23 0.11 46 0.07 68.95 0 1.74 0 3.63 0.61 5.6-1-12.86-20.95-25.83-41.82-39.38-63.25-14.9 22.86-28.12 46.08-43 68.21-1.86 3.25-4.17 6.23-6 9.49-0.7 1.42-1.67 2.68-2.42 4.07-1.63 3.21-4 6-5.7 9.13-1.26 2.41-3 4.53-4.31 6.9-3.15 5.35-6.56 10.53-9.85 15.78-1.37 2.2-2.39 4.51-4.5 6.06z"/>
    <path transform="translate(-5720.9 -6899.5)" d="M6905.49,7196.43c1-1.16,2.09-2.31,3.92-4.33v6.06q0,118.68.13,237.37c0,5.05-1.48,5.91-6.09,5.83q-24.49-.44-49,0c-4.8.09-6.41-.78-6.36-6.09.32-29.81.15-59.63.15-89.45v-5.33c-2.22.47-3.19,2.06-4.37,3.24-17.46,17.42-34.94,34.8-52.25,52.36-2.57,2.59-3.83,2.84-6.54.08-17.17-17.46-34.58-34.69-51.87-52a48,48,0,0,1-3.47-4.39c-1.84,2.19-1.18,3.9-1.19,5.44q-.06,43.23,0,86.46a10.32,10.32,0,0,1-3,7.93c-18.3,18.92-36.46,38-54.66,57-.89.93-1.8,1.83-3.19,3.24V7192.34l46.79,47.42c0,.92-.61,1.15-1.38,1.2a5.24,5.24,0,0,1-2.94-1.74c-12.71-12.79-25.73-25.27-38.08-38.33-.26.46.3.62.32,1a14.59,14.59,0,0,0,3.49,4.84q54.23,54.2,108.45,108.4a14.37,14.37,0,0,0,1.51,1.3,3.48,3.48,0,0,0,4.37,0c24-22.86,47.53-46.21,70.94-69.66,12.82-12.85,25.39-25.94,38.47-38.51,2.58-2.47,4.71-5.17,5.33-8.8C6905.68,7198.52,6905.22,7197.41,6905.49,7196.43Z"/>
    <path transform="translate(-5720.9 -6899.5)" d="M8120.51,6996.52q0,37.48,0,75c-.06,43-33,76.39-76,76.79q-45,.42-90,0c-42.94-.41-76-33.87-76-76.81-.08-52.14,0-104.28-.12-156.42,0-3.81,1-4.62,4.66-4.58,17.32.21,34.65.26,52,0,4.21-.06,4.71,1.43,4.7,5q-.15,76.71-.07,153.43c0,12.91,5.24,18.19,18.17,18.2q41.74,0,83.48,0c13,0,18.11-5.16,18.11-18.18,0-51.14.06-102.29-.12-153.43,0-4.29,1.18-5.08,5.21-5,17.32.24,34.65.19,52,0,3.26,0,4.11.83,4.09,4.09C8120.45,6941.88,8120.51,6969.2,8120.51,6996.52Z"/>
    <path transform="translate(-5720.9 -6899.5)" d="M6709.87,6910.55c38.66,0,77.32.06,116-.08,3.78,0,5,.76,4.93,4.79-.25,17.32-.21,34.65,0,52,0,3.57-1,4.35-4.43,4.33-27-.15-54,0-81-.2-4.32,0-5,1.23-5,5.22.14,55.48,0,110.95.2,166.43,0,4.47-1.1,5.5-5.47,5.42q-25.25-.42-50.49,0c-4.36.07-5.51-1-5.5-5.43.18-55.31.06-110.61.22-165.92,0-4.51-1-5.76-5.66-5.72-26.82.24-53.65,0-80.48.22-3.85,0-4.63-1.09-4.59-4.73q.3-25.74,0-51.47c-.05-3.84.84-5,4.84-4.94C6632.23,6910.62,6671.05,6910.55,6709.87,6910.55Z"/>
    <path transform="translate(-5720.9 -6899.5)" d="M7346.94,7203.46c38.66,0,77.32.06,116-.08,3.77,0,5,.75,4.94,4.79-.25,17.33-.22,34.66,0,52,0,3.59-1,4.35-4.45,4.33-27.17-.14-54.33,0-81.49-.18-3.88,0-4.53,1.09-4.53,4.68.12,55.65,0,111.29.19,166.93,0,4.37-1,5.53-5.41,5.45q-25.23-.45-50.48,0c-4.32.07-5.51-.89-5.5-5.39.18-55.31.07-110.62.22-165.93,0-4.44-.93-5.79-5.61-5.75-26.83.25-53.66,0-80.49.21-3.75,0-4.72-.93-4.67-4.67q.31-25.74,0-51.48c0-3.8.78-5,4.84-5C7269.28,7203.53,7308.11,7203.46,7346.94,7203.46Z"/>
    <path transform="translate(-5720.9 -6899.5)" d="M8558.18,7148.33c-38.66,0-77.32-.07-116,.1-4.14,0-5.23-1-5.23-5.17q.2-113.94,0-227.89c0-3.8.81-5,4.82-4.92q26,.36,52,0c3.89-.06,4.56,1.13,4.56,4.74-.12,55.47,0,110.94-.21,166.41,0,4.75,1.42,5.61,5.8,5.6,56.48-.15,113-.05,169.46-.19,4.35,0,6,.78,5.86,5.61-.33,16.65-.36,33.32,0,50,.11,5.05-1.5,5.87-6.12,5.85C8634.83,7148.25,8596.5,7148.33,8558.18,7148.33Z"/>
    <path class="cls-1" transform="translate(-5720.9 -6899.5)" d="m6905.5 7196.4c1.11 1 1.75 1.95 0 3-0.86 2.25-2.57 3.85-4.21 5.49l-105.12 105.08c-2.24 2.23-4.44 4.51-7.4 5.83a3 3 0 0 1-1.42 0 15.61 15.61 0 0 1-4.15-3.53q-33.1-33.07-66.17-66.2c-1.55-1.55-3.93-2.73-3.54-5.58l1-0.75c1.71 0.49 2.56 2 3.7 3.17 22.2 22.08 44.45 44.1 66.43 66.39 3.27 3.31 4.7 2.7 7.58-0.2q54.69-54.81 109.61-109.4c1.2-1.17 2.46-2.21 3.69-3.3z"/>
    <path class="cls-2" transform="translate(-5720.9 -6899.5)" d="M5724.57,6906.58c-2.17-.91-1.95-2.39-.95-4,1.22,1.09,2.51,2.13,3.67,3.28q55.32,55.14,110.64,110.26c1.34,1.33,2.24,3.43,4.63,3.4l1,1.08c.28.89-.25,1.33-.94,1.68-3.65.88-5.44-1.92-7.49-4q-39.42-39.32-78.76-78.7-13.77-13.77-27.56-27.52A24.24,24.24,0,0,1,5724.57,6906.58Z"/>
    <path class="cls-3" transform="translate(-5720.9 -6899.5)" d="m6504.5 7006.4c0.34-0.58 0.68-1.15 1-1.73a55.12 55.12 0 0 1 20.29 12.77l-1.23 1.07a1.43 1.43 0 0 1-1.24 0.32c-3.71-2-6.56-5.31-10.45-7-2.61-1.29-5.1-2.81-7.62-4.27a2.52 2.52 0 0 1-0.75-1.16z"/>
    <path class="cls-4" transform="translate(-5720.9 -6899.5)" d="m7362.8 6928.5-1.25 1-0.62 0.32c-2.91-0.45-4.66-2.84-7-4.18-2.94-1.61-5.87-3.21-8.65-5.1a2.55 2.55 0 0 1-0.75-1.11l1-1.75a50.08 50.08 0 0 1 17.27 10.82z"/>
    <path class="cls-5" transform="translate(-5720.9 -6899.5)" d="M6063.69,7141.55a22.16,22.16,0,0,1,3.82-6.18c.63.12.7.7.95,1.14a17.16,17.16,0,0,1-3.79,6.18Z"/>
    <path class="cls-6" transform="translate(-5720.9 -6899.5)" d="M7068,7211.46c36,0,72,.05,108-.08,3.57,0,4.81.6,4.71,4.51-.31,12-.28,24,0,36,.08,3.77-.93,4.63-4.65,4.62-57-.13-114,0-171-.2-4.28,0-5.65.82-5.49,5.37.39,11,.29,22,0,33-.09,3.83.81,5,4.84,5,42-.17,84,0,126-.21,4.18,0,5.25,1,5.14,5.16q-.48,17.49,0,35c.11,4.11-.88,5.21-5.11,5.19-41.83-.17-83.66,0-125.49-.23-4.58,0-5.5,1.28-5.38,5.55.32,10.65.36,21.33,0,32-.16,4.68.87,6.11,5.87,6.1,56.33-.21,112.66,0,169-.27,5.39,0,6.44,1.55,6.28,6.54-.38,11.65-.22,23.32,0,35,0,3-.67,3.94-3.84,3.93q-109.24-.14-218.49,0c-3.12,0-3.86-.83-3.86-3.88q.14-107.22-.05-214.44c0-4.17,2.11-3.55,4.59-3.55Z"/>
    <path class="cls-7" transform="translate(-5720.9 -6899.5)" d="m7005.1 7383.6c2.06-2.38 4.79-1.85 7.29-1.85q79.68 0 159.36 0h11c0.93 0 2.31-0.22 2.32 1.13 0 1-1 1.6-2.16 1.61h-2.49q-85.68 0-171.35 0c-1.23 0.02-2.62 0.48-3.97-0.89z"/>
    <path class="cls-8" transform="translate(-5720.9 -6899.5)" d="m7184.9 7206.9h-234.69v-1h234.65c0.01 0.35 0.02 0.68 0.04 1z"/>
    <path class="cls-9" transform="translate(-5720.9 -6899.5)" d="m7006.6 7293.6h133.19c-0.76 3.68-3.54 2.89-5.75 2.89q-53.49 0-107 0c-6.83 0-13.66 0-20.5-0.06-1.53-0.95-1.72-1.91 0.06-2.83z"/>
    <path class="cls-10" transform="translate(-5720.9 -6899.5)" d="m7006.6 7293.6a2.1 2.1 0 0 0 0 2.85c-1-0.11-2.55 0.64-2.64-0.95s1.24-1.96 2.64-1.9z"/>
    <path class="cls-6" transform="translate(-5720.9 -6899.5)" d="M8279,6918.55c36,0,72,.06,108-.1,3.89,0,5,.95,4.87,4.87-.27,11.82-.31,23.66,0,35.47.11,4.17-1.36,4.78-5,4.78q-84.72-.16-169.44-.08c-6.41,0-6.41,0-6.41,6.65,0,10.66.21,21.33-.1,32-.12,3.87,1.06,4.57,4.68,4.56,42-.13,84,0,126-.19,4.2,0,5.22,1,5.11,5.15-.31,11.65-.29,23.32,0,35,.09,4-.74,5.24-5,5.22-41.65-.19-83.3,0-125-.22-4.54,0-5.91,1.05-5.76,5.69.36,11,.31,22,0,33-.11,4.1,1.24,4.9,5.05,4.89,56.65-.11,113.3,0,169.94-.19,4.71,0,6.21.93,6,5.89-.42,11.47-.34,23,0,34.47.11,4.28-1.28,5.1-5.31,5.09q-107.72-.19-215.43,0c-4.81,0-5.59-1.5-5.58-5.84q.19-105.18-.05-210.38c0-5,1.45-5.83,6.06-5.8C8207.39,6918.64,8243.21,6918.55,8279,6918.55Z"/>
    <path class="cls-7" transform="translate(-5720.9 -6899.5)" d="m8215.3 7091.6c2.72-3.22 5.28-2.79 7.67-2.79q84.18 0 168.35 0.05c1.6 0 4.55-1.13 4.59 1.21 0 2.13-2.9 1.51-4.63 1.51q-47.2 0-94.42 0h-81.56z"/>
    <path class="cls-11" transform="translate(-5720.9 -6899.5)" d="m8218.4 7000.7q64.69-0.06 129.39-0.09c1.08 0 3-0.83 3.06 1.14 0 1.55-1.58 1.88-3 1.78h-1-127.9a12.71 12.71 0 0 1-1.48-0.18c-1.25-1.48-0.13-2.05 0.93-2.65z"/>
    <path class="cls-12" transform="translate(-5720.9 -6899.5)" d="M8218.45,7000.73c-.31.87-.63,1.74-1,2.61-.86-.08-2.51.49-2.37-.47A2.82,2.82,0,0,1,8218.45,7000.73Z"/>
    <path class="cls-6" transform="translate(-5720.9 -6899.5)" d="M6989.5,6918.55c36,0,72,.07,108-.1,3.82,0,4.65,1,4.57,4.66-.25,11.66-.28,23.33,0,35,.11,4.23-.76,5.54-5.35,5.53-56.65-.19-113.3-.07-169.95-.24-4.57,0-5.76,1.15-5.62,5.66.35,10.81.32,21.65,0,32.47-.12,4.08.81,5.21,5.07,5.19,41.82-.18,83.64,0,125.46-.21,4.15,0,5.27.94,5.16,5.13-.32,11.65-.41,23.33,0,35,.18,4.77-1.54,5.23-5.58,5.22-41.65-.14-83.31,0-125-.19-4.2,0-5.28,1.1-5.17,5.22q.43,16.72,0,33.47c-.11,4.1,1.24,4.87,5,4.87,56.65-.12,113.3,0,169.95-.21,4.87,0,6.11,1.19,5.95,6-.38,11.81-.21,23.65-.06,35.47,0,3-.76,4-3.9,4q-109.21-.13-218.43,0c-3.8,0-3.84-1.71-3.84-4.51q.06-106.44-.07-212.88c0-3.92,1.17-4.58,4.76-4.56C6916.85,6918.6,6953.18,6918.55,6989.5,6918.55Z"/>
    <path class="cls-7" transform="translate(-5720.9 -6899.5)" d="M6925.55,7091.58c2.14-2.88,4.3-2.8,6.41-2.8q85.47,0,170.95,0c1.09,0,2.34-.37,3.49,1-1.16,2.49-3.54,1.7-5.42,1.71q-39.75.07-79.48,0h-95.95Z"/>
    <path class="cls-8" transform="translate(-5720.9 -6899.5)" d="m6871.3 6912.8h235.27v1.73h-235.27z"/>
    <path class="cls-11" transform="translate(-5720.9 -6899.5)" d="m6928.6 7000.7h133c-0.65 3.63-3.33 2.84-5.5 2.84q-47.24 0-94.48 0c-11.33 0-22.65-0.11-34-0.17-1.26-1.45-0.09-2.04 0.98-2.67z"/>
    <path class="cls-13" transform="translate(-5720.9 -6899.5)" d="m6928.6 7000.7-1 2.69c-0.88 0-2.5 0.57-2.39-0.52 0.2-1.44 1.67-2.35 3.39-2.17z"/>
    <path class="cls-6" transform="translate(-5720.9 -6899.5)" d="M7304.16,7052.24l84.4,135.23c-17.62,0-34.4-.05-51.17,0-3,0-3.4-2.34-4.47-4q-39.8-63.37-79.41-126.84c-2.13-3.42-4.39-4.59-8.32-4.52q-20.23.36-40.49,0c-3.53-.06-4.37.91-4.35,4.38.15,26.32,0,52.64.17,79,0,3.84-.84,5.07-4.87,5-12.16-.29-24.33-.2-36.49,0-3,0-4-.64-4-3.82q.17-63,0-125.95c0-4.44,2.47-3.74,5.08-3.74q76,0,152,0c12.73,0,20.91-5.79,23.51-16.54,3.36-13.85-7-26.57-22-26.62-28-.09-56,0-84,0-23.33,0-46.66-.12-70,.05-3.74,0-4.71-.87-4.63-4.62.27-12.16.19-24.32,0-36.48,0-3,.73-4,3.87-4,52,.12,104-.3,156,.28,28.77.32,50.58,14.33,61.56,40.69,17.56,42.14-9.49,82.35-47.07,90.87C7321.48,7052.36,7313.32,7052.21,7304.16,7052.24Z"/>
    <path class="cls-14" transform="translate(-5720.9 -6899.5)" d="m7332.5 6917.6c-58.61-4.41-117.31-0.75-176-2-2.24-0.05-5.18 1.12-6.26-2.89h5.53q69.18 0 138.37 0c14.55 0 29.11-0.49 43.22 4-1.13 2.87-3.14 1.08-4.86 0.89z"/>
    <path class="cls-15" transform="translate(-5720.9 -6899.5)" d="m7320.5 7002.6c-2.45 1.16-5.06 1-7.66 1h-156.26-1.5c-1.61-0.05-4.16 0.35-4.08-1.65 0.09-2.25 2.69-1.15 4.13-1.16q77.64-0.09 155.27-0.06c3 0 6-0.17 9-0.26 0.76-0.46 1.66-0.53 2.09 0.23s-0.32 1.45-0.99 1.9z"/>
    <path class="cls-16" transform="translate(-5720.9 -6899.5)" d="M7361.51,6929.49c5.92,3.92,8.59,10.16,11.37,16.4-6.14-5.78-10.93-13-18.4-17.33-.07-2,1.09-1.63,2.2-1.1,1.57.76,2.76,2.29,4.71,2.27Z"/>
    <path class="cls-17" transform="translate(-5720.9 -6899.5)" d="M7361.39,6929.73c-1.78,1.49-2.86-.32-4.12-1-1-.5-1.74-1.59-2.79-.2l-10.94-7c1.81-1.62,3.29-.17,4.79.57,2,1,3.7,2.54,6.07,2.59Z"/>
    <path class="cls-18" transform="translate(-5720.9 -6899.5)" d="m7341.3 7107-10-16.23 1.1-0.67 10.06 16.3z"/>
    <path class="cls-12" transform="translate(-5720.9 -6899.5)" d="m7332.5 6917.6c1.63-0.31 3.5 0.68 4.9-0.88 2.64 0.15 4.79 1.56 7 2.74l0.92 0.3c-2.35 3-4.54 0.32-6.8-0.18-1.99-0.63-4.27-0.54-6.02-1.98z"/>
    <path class="cls-19" transform="translate(-5720.9 -6899.5)" d="m7338.6 6919.5c2.29-0.54 4.47 2.4 6.8 0.18l9 5c-2.46 1.52-3.83-1-5.71-1.6-1.71-0.54-3.22-1.73-5.15-1.56a5.68 5.68 0 0 1-4.94-2.02z"/>
    <path class="cls-20" transform="translate(-5720.9 -6899.5)" d="m7324.5 6997.6c1.56-2 3.92-2.07 6.89-3.07-2.5 3.38-4.15 6.33-7.87 7.06-0.92-1.59 1.03-2.59 0.98-3.99z"/>
    <path class="cls-18" transform="translate(-5720.9 -6899.5)" d="m7322.6 7074.2 6.91 11.16c-3.62-2.95-6.17-6.57-6.91-11.16z"/>
    <path class="cls-19" transform="translate(-5720.9 -6899.5)" d="M7324.51,6997.6c2,1.91-1,2.57-1,4-.76,1.08-2,.78-3,1,.57-1.2.47-2.05-1.12-2.1Z"/>
    <path class="cls-21" transform="translate(-5720.9 -6899.5)" d="m7379.6 7166.8a4.58 4.58 0 0 1 2.58 4.31c-1.81-1.02-2.15-2.36-2.58-4.31z"/>
    <path class="cls-20" transform="translate(-5720.9 -6899.5)" d="m7387.5 7179.2c-2.33-0.89-2.24-2.46-3.45-4.53 2.63 1.27 2.66 2.77 3.45 4.53z"/>
    <path class="cls-20" transform="translate(-5720.9 -6899.5)" d="m7389.2 7182.7c2.4 1.15 2.56 2.59 3.44 4.54-2.49-1.04-2.34-2.64-3.44-4.54z"/>
    <path class="cls-22" transform="translate(-5720.9 -6899.5)" d="m7316.5 7065.8a4.6 4.6 0 0 1 2.63 4.33c-1.78-1.05-2.16-2.37-2.63-4.33z"/>
    <path class="cls-21" transform="translate(-5720.9 -6899.5)" d="m7374.4 7158.9c2.18 0.9 2.48 2.26 2.79 3.85-2.1-0.47-2.03-2.07-2.79-3.85z"/>
    <path class="cls-6" transform="translate(-5720.9 -6899.5)" d="M6496.68,7079.63c3.26-7.86,0-16-5.51-21.55-6.27-6.28-13.38-6.34-21-6.35-28.33,0-56.66,0-85,0-39.05-.07-68.47-30.14-67.68-69.08.7-34,29.48-63.55,63.69-63.89,53-.52,106-.16,159-.24,2.44,0,3.46.41,3.42,3.21-.16,12.83-.24,25.66,0,38.48.09,4.39-2.62,3.28-4.86,3.28q-76,0-152,0c-6.56,0-12.57,1-17.26,6.1-.79,1.18-1.36,2.56-2.86,3.09l-1.05,1.92a3.06,3.06,0,0,1-1.05,2c-6,14.76,3.91,29.88,19.87,29.95,30.62.14,61.25-.05,91.87.07,32,.13,58.27,21.21,65.53,52.29,7.74,33.11-11.52,67.12-44.09,77.85-1.22,2.27-3.47,1.27-5.28,1.66a99.94,99.94,0,0,1-21.35,1.94q-74.23-.07-148.48.07c-4,0-5.39-.74-5.27-5.06.33-11.82.28-23.66,0-35.48-.08-3.89.94-4.9,4.87-4.89,50.49.14,101,.08,151.48.11,10.28,0,18.55-3.17,22.61-13.49A1.41,1.41,0,0,1,6496.68,7079.63Z"/>
    <path class="cls-9" transform="translate(-5720.9 -6899.5)" d="m6360.6 6916.7a67.93 67.93 0 0 1 23.42-4.13q80.19 0 160.38 0c1.15 0 2.29 0.12 3.74 0.2-1.46 2.81-3.85 1.77-5.71 1.78-50.79 0.06-101.59-0.07-152.38 0.16-8.21 0-16.53 0.63-24.57 2.86-1.74 0.32-3.7 1.89-4.88-0.87z"/>
    <path class="cls-7" transform="translate(-5720.9 -6899.5)" d="m6479.6 7091.4c-1.83 0.07-3.66 0.21-5.48 0.21q-77.67 0-155.35 0c-2.08 0-4.84 1.27-6-1.95 1.7-1 3.58-0.51 5.37-0.51q78 0 155.94 0c1.82 0 3.66 0.29 5.45-0.3l2-0.25c0.5-0.26 1.13-0.13 1.14 0.34 0.04 1.96-1.8 1.9-3.07 2.46z"/>
    <path class="cls-9" transform="translate(-5720.9 -6899.5)" d="m6380.7 7000.4 78.41 0.23c12.55 0 25.18-0.81 37.42 3.05-1.55 3.11-3.94 0.9-6 0.95-1.5-1.3-3.53 0.1-5.07-1q-48.55 0-97.1-0.07c-2.93 0-6 0.53-8.72-1.14-0.81-0.3-1.51-0.87-1.08-1.71s1.36-0.67 2.14-0.31z"/>
    <path class="cls-23" transform="translate(-5720.9 -6899.5)" d="m6479.5 7088.7c-1.76 1.43-3.85 0.79-5.78 0.79q-80.49 0.07-161 0.06c0.95-1.39 2.41-0.89 3.66-0.89q81.61 0 163.12 0.04z"/>
    <path class="cls-16" transform="translate(-5720.9 -6899.5)" d="m6347.6 6926.6a82.65 82.65 0 0 0-22.45 21.35c3.27-7.3 6.39-14.66 13.43-19.34 2.29 0 3.66-1.86 5.51-2.73 1.35-0.63 2.82-1.84 3.51 0.72z"/>
    <path class="cls-21" transform="translate(-5720.9 -6899.5)" d="m6523.6 7018.6 0.93-0.06c7.22 4.81 8.95 13.07 12.8 20-5-6.91-10.29-13.47-16.85-18.92 0.34-2.38 1.74-1.67 3.12-1.02z"/>
    <path class="cls-17" transform="translate(-5720.9 -6899.5)" d="m6523.6 7018.6c-1.14 0-2.4-0.24-3.12 1l-16.94-11.08c1.86-1.65 3.32 0.07 4.95 0.55s2.75 2.56 4.87 1.65a36.39 36.39 0 0 1 10.24 7.88z"/>
    <path class="cls-24" transform="translate(-5720.9 -6899.5)" d="M6347.56,6926.56c-2-1.7-3.06.42-4.51,1s-2.55,2.75-4.51,1c2.86-2.21,5.69-4.48,9.05-5.93,2.73-.37,4.86-2.27,7.47-2.93,1.46-.37,2.92-1.7,4.46-.14Z"/>
    <path class="cls-23" transform="translate(-5720.9 -6899.5)" d="m6359.5 6919.6c-3.27 0.06-5.88 2.06-8.87 3-1 0.31-2 1.5-3.06 0.11a36.66 36.66 0 0 1 13.05-6c1.4 1.56 3.27 0.47 4.88 0.87a12.13 12.13 0 0 1-6 2.02z"/>
    <path class="cls-25" transform="translate(-5720.9 -6899.5)" d="m6380.7 7000.4c-1.29 0.21-2 0.69-1 2-4.13 0-7-2.12-9.87-5.42 4.78-1.22 7.38 2.49 10.87 3.42z"/>
    <path class="cls-26" transform="translate(-5720.9 -6899.5)" d="m6513.4 7010.7c-3.89 2-6.21-3-9.82-2.2-2.86 0-5.32-1.43-7.93-2.32 0.88-2.51 2.46-1 3.84-0.67 2 0.44 3.73 2 5.95 1.18q3.98 2.01 7.96 4.01z"/>
    <path class="cls-27" transform="translate(-5720.9 -6899.5)" d="M6505.45,7006.72c-1.64,1.62-3.22.29-4.88,0s-3.12-2-4.91-.52l-5.15-1.62c2-.5,4.21.76,6-.95,2.93.16,5.31,1.95,8,2.75A8.07,8.07,0,0,1,6505.45,7006.72Z"/>
    <path class="cls-28" transform="translate(-5720.9 -6899.5)" d="m6486.6 7085.5c1.45-1.73 3.42-2.12 6-2.32a14.32 14.32 0 0 1-4.94 5.37c-1.14-0.76-1.11-1.9-1.06-3.05z"/>
    <path class="cls-29" transform="translate(-5720.9 -6899.5)" d="m6492.5 7138.4c1.52-1.31 3.55-1 5.28-1.66l2.53 2.23a9 9 0 0 1-7.81-0.57z"/>
    <path class="cls-30" transform="translate(-5720.9 -6899.5)" d="M6486.55,7085.54c1.21.72.94,1.95,1,3.05a4.87,4.87,0,0,1-4.09,1.72c-.36-.93.27-1.87,0-2.81Z"/>
    <path class="cls-23" transform="translate(-5720.9 -6899.5)" d="M6483.51,7087.5c3.13.94-.12,1.88,0,2.82a5.39,5.39,0,0,1-3.94,1c.19-1.26,3.24-.6,1.93-2.88Z"/>
    <path class="cls-13" transform="translate(-5720.9 -6899.5)" d="m6366.7 6972.6c0.56-1.39 1.27-2.65 2.86-3.09-0.24 1.69 1.05 4.8-2.86 3.09z"/>
    <path class="cls-27" transform="translate(-5720.9 -6899.5)" d="m6485.5 7003.6c1.73 0.1 3.66-0.8 5.07 1-1.67-0.47-3.6 0.44-5.07-1z"/>
    <path class="cls-13" transform="translate(-5720.9 -6899.5)" d="m6496.7 7079.6-0.33 2c-1 0-2.24-0.37-2.06-1.42s1.57-0.38 2.39-0.58z"/>
    <path class="cls-31" transform="translate(-5720.9 -6899.5)" d="m6364.6 6976.6c0.05-0.84 0.15-1.65 1.05-2 0.74 0.27 1.82 0.69 1.42 1.45-0.26 0.45-1.61 0.37-2.47 0.55z"/>
    <path class="cls-6" transform="translate(-5720.9 -6899.5)" d="M7690.48,7140.52c-26.16,0-52.31-.08-78.47.09-3.66,0-4.65-.76-4.63-4.56q.24-61.22,0-122.42c0-4.08,1.21-4.9,5-4.83,11.83.24,23.66.29,35.48,0,4.14-.11,4.84,1.3,4.82,5-.15,25.65,0,51.3-.17,77,0,3.64.74,4.75,4.6,4.73,35.65-.16,71.31-.06,107-.11,14.79,0,24.25-9.56,24.29-24.48q.09-41.47,0-82.95c0-14.94-9.45-24.24-24.43-24.25q-75.72-.06-151.44.09c-4.2,0-5.2-1-5.09-5.14.3-12.16.18-24.32.05-36.48,0-2.68.5-3.67,3.47-3.67,52.47.11,104.95-.23,157.43.23,34.88.3,64.53,30.14,65,65q.65,45.7,0,91.43c-.45,35-30.36,64.74-65.39,65.25-25.82.37-51.65.07-77.47.07Z"/>
    <path class="cls-9" transform="translate(-5720.9 -6899.5)" d="m7782.4 6916.8c-40-4.4-80.12-1.35-120.17-2.13-18.16-0.35-36.32 0-54.47-0.1-1.63 0-3.75 1-4.83-1.46 1.76-0.94 3.59-0.47 5.33-0.47q70.21 0 140.43 0c11.26 0 22.61-0.91 33.69 2.09a1.43 1.43 0 0 1 0.02 2.07z"/>
    <path class="cls-8" transform="translate(-5720.9 -6899.5)" d="m7769.4 7091.3-92.79 0.21a108 108 0 0 1-18.29-1c11.87-1.1 23.76-1.05 35.66-1.06h73.34c1-0.51 2.22-0.79 3 0.16 0.64 0.73-0.13 1.37-0.92 1.69z"/>
    <path class="cls-8" transform="translate(-5720.9 -6899.5)" d="m7629.8 7002.8h24.43c1 0 2.72-0.6 2.77 1.1 0 1.26-1.35 1.64-2.63 1.64q-24.42 0-48.84 0c-1.27 0-2.62-0.39-2.5-1.73 0.16-1.66 1.84-1 2.85-1 7.97-0.04 15.95-0.01 23.92-0.01z"/>
    <path class="cls-21" transform="translate(-5720.9 -6899.5)" d="m7813.5 6930.6c6.84 4.26 9.14 11.59 12.44 18.29-5.31-6.68-10.88-13.05-17.54-18.39 1.76-3.1 3.4 0.09 5.1 0.1z"/>
    <path class="cls-17" transform="translate(-5720.9 -6899.5)" d="m7813.5 6930.6c-1.74 1.65-3.36-2.19-5.1-0.1l-12.92-8.09c0.6-2.3 2-1.37 3.46-1 1.2 0.33 2 1.91 3.5 1.22a41.39 41.39 0 0 1 11.06 7.97z"/>
    <path class="cls-32" transform="translate(-5720.9 -6899.5)" d="m7802.4 6922.6c-2.4 2.31-4.55-2.81-7-0.24-2.52-1.53-5.77-1.55-7.95-3.81 2.33-2.46 4.59 1.58 6.91 0.06 3.07 0.6 5.59 2.33 8.04 3.99z"/>
    <path class="cls-33" transform="translate(-5720.9 -6899.5)" d="m7794.4 6918.6c-2.33 2.18-4.6-1-6.91-0.06a8.7 8.7 0 0 1-5.09-1.78v-2.07c4.38 0.11 7.94 2.77 12 3.91z"/>
    <path class="cls-21" transform="translate(-5720.9 -6899.5)" d="m7775.4 7086.4c1.43-2.67 3.91-3.07 7.06-3.11-2.4 3.52-4.79 6.42-8.89 7.31-1.17-2.18 1.92-2.49 1.83-4.2z"/>
    <path class="cls-34" transform="translate(-5720.9 -6899.5)" d="M7775.41,7086.4c1.32,2.25-2,2.47-1.83,4.2-1.19,1.34-2.73.69-4.14.72,1.21-2.74-1.35-1.29-2.08-1.87Z"/>
    <path class="cls-6" transform="translate(-5720.9 -6899.5)" d="M5746.75,7168.65c-1.12,3.64-5,4.48-7.2,7.19-3,3.78-6.93,6.88-10.66,10.46V6919c1.67,1.55,3,2.7,4.23,3.93q52.56,52.38,105,104.85c2.9,2.91,4.3,2.9,7.26-.07q52-52.21,104.33-104.16a37.14,37.14,0,0,0,3.43-4.71l1.51,1v4.75q0,105.18.12,210.36c0,4.83-1.52,5.64-5.82,5.53-11-.28-22-.36-33,0-5,.18-6.62-.88-6.57-6.3.29-33.64.14-67.28.14-100.93v-4.88l-1-.73c-1,1.2-1.94,2.48-3,3.59-20.13,20.15-40.32,40.23-60.36,60.48-2.63,2.66-4,3-6.87.12-19.88-20.17-40-40.11-60-60.17a35.51,35.51,0,0,1-3.15-4.31c-1.93,2.4-1.3,4.09-1.3,5.6q-.07,51.46,0,102.93a10.58,10.58,0,0,1-3,8l-9.44,9.59a4.21,4.21,0,0,1-1.82,3.3c-1.08-.92-1.59-.07-2.12.7-.31,1-1.24,1.42-1.92,2.06h0c-.48,1.54-1.82,2.19-3.05,2.94v0a6.86,6.86,0,0,1-1.55,2.43,25.67,25.67,0,0,1-2,2A11,11,0,0,1,5746.75,7168.65Z"/>
    <path class="cls-35" transform="translate(-5720.9 -6899.5)" d="m5842.6 7021.6 1-1c1.49-1.33 3-2.58 4.45-4q53-53 106.08-106c1.41-1.41 2.93-2.7 4.4-4a1.49 1.49 0 0 1 0.06 2.14c0.36 2.32-1.21 3.63-2.63 5.05q-54.09 54.11-108.21 108.21c-1.47 1.47-2.68 3.49-5.14 3.67-1.83-1.37-2.24-2.71-0.01-4.07z"/>
    <path class="cls-36" transform="translate(-5720.9 -6899.5)" d="m5842.6 7021.6a3.3 3.3 0 0 0 0 4c-2.07 0.29-3.34-1-4.74-2.24-13.1-11.6-25.15-24.26-37.53-36.58q-22-21.87-43.82-43.83c-9.51-9.5-19-19-28.57-28.48-2.26-2.23-3.73-4.63-3.37-7.9 1.37 1.2 2.81 2.32 4.09 3.6q53.91 53.83 107.79 107.68c1.74 1.75 3.15 4.09 6.15 3.75z"/>
    <path class="cls-37" transform="translate(-5720.9 -6899.5)" d="m5759.7 7156.8a2.91 2.91 0 0 1 1.82-3.3c1.71 0.89 1.16 2.1 0.37 3.22-0.61 0.85-1.41 1.41-2.19 0.08z"/>
    <path class="cls-38" transform="translate(-5720.9 -6899.5)" d="m5752.6 7162.5a6.1 6.1 0 0 1 3.05-2.94c1.74 3.84-1.07 2.96-3.05 2.94z"/>
    <path class="cls-39" transform="translate(-5720.9 -6899.5)" d="M5748.88,7166.62c0-1.16.82-1.69,1.76-2.09.91-.2,1.29.11,1,1.06.11,1.41-.67,2-2,2.08A1.59,1.59,0,0,1,5748.88,7166.62Z"/>
    <path class="cls-39" transform="translate(-5720.9 -6899.5)" d="m5748.9 7166.6 0.79 1.05c-0.16 2.75-1.69 1.43-2.92 1a2.78 2.78 0 0 1 2.13-2.05z"/>
    <path class="cls-40" transform="translate(-5720.9 -6899.5)" d="m5751.6 7165.6-1-1.06a2.89 2.89 0 0 1 1.94-2c0.12 1.13 2.24 2.91-0.94 3.06z"/>
    <path class="cls-41" transform="translate(-5720.9 -6899.5)" d="m5958.6 6908.7c0-0.71 0-1.43-0.05-2.14 0.48-0.54 1-1.07 1.87-2.06-0.29 2.05-0.46 3.4-1.82 4.2z"/>
    <path class="cls-39" transform="translate(-5720.9 -6899.5)" d="m5755.6 7159.6 1.92-2.06c0 0.88 1.51 1.6 0.56 2.38-0.44 0.37-1.63-0.18-2.48-0.32z"/>
    <path class="cls-6" transform="translate(-5720.9 -6899.5)" d="M7714.39,7433.28H7512.83c-.44-1.75,1-2.73,1.71-3.91,7.79-12.58,15.73-25.06,23.43-37.69,1.58-2.61,3.29-3.5,6.32-3.49,27.66.12,55.31.07,83,.07h5.89L7576.32,7297c-27.56,44.4-54.76,88.15-81.8,132-2.1,3.4-4.34,4.58-8.28,4.53-15.62-.24-31.25-.1-47.73-.1l137.81-221.93Z"/>
    <path class="cls-9" transform="translate(-5720.9 -6899.5)" d="m7622.2 7383.8c-1.91 1-3.77 0.57-5.56 0.58-25.47 0-50.93 0-76.39 0.17-1.28 0-2.61 0.28-2.75-1.09-0.21-2 1.65-1.16 2.55-1.16q39.43-0.08 78.89 0c1.09-0.02 2.36-0.27 3.26 1.5z"/>
    <path class="cls-22" transform="translate(-5720.9 -6899.5)" d="m7677.3 7368.9-10-16.24 1.11-0.67 10.06 16.29c-0.39 0.2-0.78 0.41-1.17 0.62z"/>
    <path class="cls-18" transform="translate(-5720.9 -6899.5)" d="m7649.4 7324.1-10.08-16.43 1.12-0.66 10.06 16.44z"/>
    <path class="cls-22" transform="translate(-5720.9 -6899.5)" d="M7579.43,7209l10.07,16.32-1.09.67q-5-8.16-10.07-16.32Z"/>
    <path class="cls-21" transform="translate(-5720.9 -6899.5)" d="m7613.8 7265.8c-2.8-3.52-5.75-6.95-6.74-11.55 2.31 3.82 5.61 7.05 6.74 11.55z"/>
    <path class="cls-22" transform="translate(-5720.9 -6899.5)" d="m7524 7289.6a21 21 0 0 1 5.34-8.81 20.34 20.34 0 0 1-5.34 8.81z"/>
    <path class="cls-20" transform="translate(-5720.9 -6899.5)" d="m7493.9 7339.3-5.33 8.77a11.49 11.49 0 0 1 5.33-8.77z"/>
    <path class="cls-22" transform="translate(-5720.9 -6899.5)" d="m7546.4 7252a10.59 10.59 0 0 1-4.9 8.46z"/>
    <path class="cls-18" transform="translate(-5720.9 -6899.5)" d="m7505.9 7318.3c-0.52 3.46-2.59 6-4.83 8.52 0.54-3.43 2.76-5.93 4.83-8.52z"/>
    <path class="cls-22" transform="translate(-5720.9 -6899.5)" d="m7464.5 7384.3 5-8.33c0 3.72-2.24 6.2-5 8.33z"/>
    <path class="cls-21" transform="translate(-5720.9 -6899.5)" d="m7701.4 7405.3c-2.85-2.05-4.93-4.63-5-8.31q2.49 4.16 5 8.31z"/>
    <path class="cls-42" transform="translate(-5720.9 -6899.5)" d="m7526.7 7392.4 4.33-7.43c0.23 3.29-1.53 5.47-3.24 7.68-0.49 0.48-0.81 0.4-1.09-0.25z"/>
    <path class="cls-43" transform="translate(-5720.9 -6899.5)" d="m7526.7 7392.4 1.09 0.25c-1.62 2.36-1.52 6.23-5.61 6.43l0.1 0.13c1.41-2.32 2.39-4.9 4.42-6.81z"/>
    <path class="cls-21" transform="translate(-5720.9 -6899.5)" d="m7549.5 7250.1c0.12-3.56 0.94-5.14 3.26-6-0.85 1.6-1.71 3.16-3.26 6z"/>
    <path class="cls-20" transform="translate(-5720.9 -6899.5)" d="m7511.8 7310.1-2.46 4.49c-0.62-2.11 0.13-3.58 2.46-4.49z"/>
    <path class="cls-21" transform="translate(-5720.9 -6899.5)" d="M7473.13,7372.81c-.11-2.39.22-4.28,3.14-5.46Z"/>
    <path class="cls-21" transform="translate(-5720.9 -6899.5)" d="m7568.3 7219.7c-0.65-2.31 0.14-3.91 2.88-5.57-1.2 2.42-2.06 4-2.88 5.57z"/>
    <path class="cls-21" transform="translate(-5720.9 -6899.5)" d="m7457.9 7397.1-2.55 4.55c-0.57-2.18 0.18-3.76 2.55-4.55z"/>
    <path class="cls-44" transform="translate(-5720.9 -6899.5)" d="m7528.9 7401.1-2.59 4.56c-0.43-2.18 0.1-3.91 2.59-4.56z"/>
    <path class="cls-45" transform="translate(-5720.9 -6899.5)" d="m7521.3 7403.4-2.77 4.69c-1-3.1 0.84-4.28 1.86-5.75 0.58 0.08 0.69 0.67 0.91 1.06z"/>
    <path class="cls-44" transform="translate(-5720.9 -6899.5)" d="m7521.2 7413.7c-0.44-2.37 0.14-4.08 2.93-5.41-1.18 2.25-2.08 3.83-2.93 5.41z"/>
    <path class="cls-21" transform="translate(-5720.9 -6899.5)" d="m7440.5 7425-3.81 6.71c-0.07-3.29 0.78-4.91 3.81-6.71z"/>
    <path class="cls-20" transform="translate(-5720.9 -6899.5)" d="m7486 7352.1-3.28 5c0.28-3.13 0.96-4.53 3.28-5z"/>
    <path class="cls-22" transform="translate(-5720.9 -6899.5)" d="m7562.4 7228.5c0.31-2.88 0.91-4.33 2.83-5.76a9.91 9.91 0 0 1-2.83 5.76z"/>
    <path class="cls-22" transform="translate(-5720.9 -6899.5)" d="m7452.2 7404.1a8.74 8.74 0 0 1-2.25 5.89c-0.62-2.31 0.62-3.52 2.25-5.89z"/>
    <path class="cls-46" transform="translate(-5720.9 -6899.5)" d="m7502.3 7433.4c-0.75 1.68-1.52 3.34-3.27 4.29a6.62 6.62 0 0 1 2.46-4.29c0.27-0.52 0.52-0.49 0.81 0z"/>
    <path class="cls-21" transform="translate(-5720.9 -6899.5)" d="m7663.6 7344.1 2.36 4.33c-2.66-1.17-2.58-2.81-2.36-4.33z"/>
    <path class="cls-21" transform="translate(-5720.9 -6899.5)" d="m7604.4 7250c-2.16-0.73-2.25-2.23-2.76-3.86 2.03 0.68 2.23 2.11 2.76 3.86z"/>
    <path class="cls-18" transform="translate(-5720.9 -6899.5)" d="m7619.2 7274.2a4.66 4.66 0 0 1-2.33-4.38 5.08 5.08 0 0 1 2.33 4.38z"/>
    <path class="cls-20" transform="translate(-5720.9 -6899.5)" d="m7638.2 7303.4c-2.94-1.17-2.85-2.77-3.78-4.17 2.69 0.31 2.07 2.24 3.78 4.17z"/>
    <path class="cls-21" transform="translate(-5720.9 -6899.5)" d="m7693.8 7393.5c-2.6-1.52-2.75-2.91-3.42-4.73 2.19 0.98 2.31 2.45 3.42 4.73z"/>
    <path class="cls-19" transform="translate(-5720.9 -6899.5)" d="m7576 7200.7c1.87 1.74 0.33 2.78 0.23 4.78-0.91-2.08-0.94-3.26-0.23-4.78z"/>
    <path class="cls-47" transform="translate(-5720.9 -6899.5)" d="m7521.3 7403.4-0.91-1.06c0.63-1 1.26-2.07 1.89-3.12a1.31 1.31 0 0 1-0.11-0.12c1.28 1.74 0.06 3-0.87 4.3z"/>
    <path class="cls-48" transform="translate(-5720.9 -6899.5)" d="m7513.6 7414.6c0 1.25-0.35 2.37-1.84 2.81-0.31-1.48 0.64-2.21 1.84-2.81z"/>
    <path class="cls-49" transform="translate(-5720.9 -6899.5)" d="m7509.3 7422c-0.83 1.8-1 3.09-2.76 3.24a3.9 3.9 0 0 1 2.76-3.24z"/>
    <path class="cls-50" transform="translate(-5720.9 -6899.5)" d="m7502.3 7433.4h-0.81a4.18 4.18 0 0 1 2.4-3.32 4.42 4.42 0 0 1-1.59 3.32z"/>
    <path class="cls-6" transform="translate(-5720.9 -6899.5)" d="m6001.6 7140.5c46.1-74.23 91.74-147.75 137.81-221.93l138 221.69h-201.54c2.59-4.19 5-8.08 7.4-12 6.05-9.75 12.21-19.43 18.06-29.3 1.66-2.8 3.44-3.77 6.7-3.75 29 0.14 58 0.08 88.18 0.08l-56.79-91.24c-1.25 2-2.16 3.51-3.08 5q-39.59 63.77-79.12 127.58c-1.8 2.91-3.68 4-7.09 3.93-15.82-0.17-31.65-0.06-48.53-0.06z"/>
    <path class="cls-9" transform="translate(-5720.9 -6899.5)" d="m6101 7090h84v1h-83.94c0.01-0.27-0.01-0.62-0.06-1z"/>
    <path class="cls-5" transform="translate(-5720.9 -6899.5)" d="M6068.46,7136.51l-.95-1.14,10-16c.64.14.74.75,1,1.19A149,149,0,0,1,6068.46,7136.51Z"/>
    <path class="cls-51" transform="translate(-5720.9 -6899.5)" d="m6088.5 7104.5-5.79 9.24c-0.65-0.15-0.74-0.77-1-1.22l5.81-9.25c0.62 0.15 0.7 0.77 0.98 1.23z"/>
    <path class="cls-52" transform="translate(-5720.9 -6899.5)" d="m6095.5 7090.4 1 1.09a47.91 47.91 0 0 1-5.76 9.3c-0.67-0.15-0.75-0.77-1-1.25a48.29 48.29 0 0 1 5.76-9.14z"/>
    <path class="cls-53" transform="translate(-5720.9 -6899.5)" d="M6081.64,7112.53l1,1.22c-1.39,2.25-2.77,4.51-4.16,6.77-.34-.4-.69-.79-1-1.19Z"/>
    <path class="cls-54" transform="translate(-5720.9 -6899.5)" d="m6089.7 7099.5 1 1.25-2.23 3.72-1-1.23z"/>
    <path class="cls-6" transform="translate(-5720.9 -6899.5)" d="M6813.4,7363.36c-7.36,7.21-14.84,14.3-22,21.69-2.49,2.57-3.77,2.31-6.16-.1-20-20.24-40.23-40.33-60.36-60.49-1.16-1.16-2.11-2.53-4.34-3.39v5.16q0,51.23.05,102.44a9.65,9.65,0,0,1-2.86,7.47c-13.9,14.32-27.63,28.8-42,43.8V7212.26c1.45,1.33,2.74,2.44,3.94,3.63q52.41,52.2,104.71,104.49c3.34,3.36,4.94,2.89,8-.16q52.21-52.38,104.7-104.49c1.13-1.13,2-2.65,3.73-3.14,1.15,1.14.56,2.54.56,3.76q.06,105.93.13,211.86c0,4.21-1.14,5.22-5.24,5.14-13.15-.27-26.32-.1-39.48-.1-1.55-1.53-.7-3.46-.71-5.17q-.09-48.9-.06-97.81c0-2.08.49-4.29-1.13-6.5-6.4,6-12.7,11.89-18.74,18-5.83,5.93-11.76,11.77-17.63,17.66A15.78,15.78,0,0,1,6813.4,7363.36Z"/>
    <path class="cls-35" transform="translate(-5720.9 -6899.5)" d="m6713.5 7240.5c2.15 2.3 4.24 4.66 6.46 6.89q33.81 33.92 67.67 67.78c-0.22 1.2-0.11 2.69-2.08 2.28-1.26-1.06-2.6-2-3.76-3.19q-53.46-53.44-106.88-106.91c-1.6-1.61-3.76-2.94-3.36-5.74a1.53 1.53 0 0 1 0-2.14q18.22 18 36.45 36c1.8 1.73 3.67 3.35 5.5 5.03z"/>
    <path class="cls-36" transform="translate(-5720.9 -6899.5)" d="m6788.4 7315.2c3.42-3.14 7-6.17 10.23-9.44q51.26-51.14 102.45-102.34c1.4-1.4 2.94-2.68 4.41-4 0.74 3.31-1 5.62-3.17 7.75-29.41 29.41-58.59 59.05-88.39 88.06-7.7 7.51-15 15.49-23.49 22.25-1.91 0.34-1.83-1.09-2.04-2.28z"/>
    <path class="cls-55" transform="translate(-5720.9 -6899.5)" d="m6813.4 7363.4 43.06-41.17v6.71q0 49.18 0 98.38c0 2 0.2 4 0.31 6-2.38-1.29-1.28-3.55-1.28-5.33q-0.12-48.37-0.06-96.76v-5.51a259.85 259.85 0 0 0-20.43 18.82c-5.55 5.73-11.29 11.28-16.9 16.95-1.36 1.33-2.52 2.78-4.7 1.91z"/>
    <path class="cls-56" transform="translate(-5720.9 -6899.5)" d="m6788.4 7315.2 2 2.27a3.33 3.33 0 0 1-4.95 0l2.08-2.27a1.08 1.08 0 0 0 0.87 0z"/>
    <path class="cls-32" transform="translate(-5720.9 -6899.5)" d="m6671.6 7199.5v2.14c-1.55-0.71-1.15-2.33-2.22-3.56a2.37 2.37 0 0 1 2.22 1.42z"/>
    <path class="cls-6" transform="translate(-5720.9 -6899.5)" d="M8112.51,7000.41q0,35.48,0,71c-.05,38.76-29.21,68.53-67.9,68.9q-45,.42-90,0c-38.69-.35-68-30.1-68.1-68.78-.08-49.49,0-99-.12-148.45,0-3.79.94-4.68,4.64-4.6,12,.26,24,.31,36,0,4.2-.12,4.72,1.4,4.71,5q-.15,73-.07,145.95c0,16.58,9,25.66,25.6,25.68q42.26.08,84.49,0c16.77,0,25.66-8.89,25.66-25.52q0-73-.09-146c0-4,.78-5.3,5.05-5.18,11.66.34,23.34.4,35,0,4.69-.17,5.27,1.42,5.24,5.52C8112.42,6949.42,8112.51,6974.91,8112.51,7000.41Z"/>
    <path class="cls-7" transform="translate(-5720.9 -6899.5)" d="M8048.41,7088.68l3-.11a1,1,0,0,1,.32.76c0,.28-.06.43-.12.43-1,1.46-2.8,1-4.15,1.62q-47.65.09-95.29.2a6.14,6.14,0,0,1-3.71-1.17c-.6-.42-1.53-.66-.95-1.73l3,0a7.87,7.87,0,0,0,3.44.34q45.53,0,91,0A7.41,7.41,0,0,0,8048.41,7088.68Z"/>
    <path class="cls-9" transform="translate(-5720.9 -6899.5)" d="m7936.4 6913.9h-54.2v-1h54.24z"/>
    <path class="cls-8" transform="translate(-5720.9 -6899.5)" d="m8063 6912.9h53.86v1h-53.73c-0.04-0.33-0.08-0.66-0.13-1z"/>
    <path class="cls-57" transform="translate(-5720.9 -6899.5)" d="M8048.41,7088.68c-1.39,1.35-3.15.84-4.75.85q-44.2,0-88.4,0c-1.6,0-3.36.51-4.76-.83Z"/>
    <path class="cls-58" transform="translate(-5720.9 -6899.5)" d="m7947.5 7088.7 0.95 1.73c-3.52 0-6.14-1.82-8.72-4.29 4.08-2.91 5.6 0.77 7.77 2.56z"/>
    <path class="cls-36" transform="translate(-5720.9 -6899.5)" d="m8055.4 7085.5c1.24-2.31 3.2-2.07 5.5-1.68-1 2.26-2.68 3.48-4.29 4.76-2.83-0.07-1.39-1.82-1.21-3.08z"/>
    <path class="cls-59" transform="translate(-5720.9 -6899.5)" d="M8055.42,7085.49c1.23.7-.67,2.63,1.21,3.08a6.83,6.83,0,0,1-5.14,2c-.32-.2-.45-.43-.38-.68s.16-.39.26-.39a7.73,7.73,0,0,0,.06-1A10.48,10.48,0,0,1,8055.42,7085.49Z"/>
    <path class="cls-57" transform="translate(-5720.9 -6899.5)" d="M8051.37,7089.53l.12,1.07c-1.13,1.34-2.66.63-4,.78Z"/>
    <path class="cls-6" transform="translate(-5720.9 -6899.5)" d="M6709.52,6918.55c36,0,72,.1,108-.13,4.58,0,5.39,1.29,5.28,5.48-.3,11.66-.25,23.33,0,35,.07,3.64-.71,4.74-4.58,4.72-27-.2-54,0-81-.2-3.87,0-4.89.91-4.88,4.84.14,55.65.05,111.29.19,166.93,0,4-.83,5.39-5.11,5.27q-17.73-.46-35.48,0c-4.19.11-4.83-1.38-4.82-5.08q.17-82.71.07-165.42c0-6.46,0-6.46-6.69-6.46-26.5,0-53-.06-79.49.08-3.44,0-4.51-.77-4.44-4.35q.34-18.24,0-36.48c-.07-3.67,1.16-4.28,4.49-4.27C6637.2,6918.59,6673.36,6918.55,6709.52,6918.55Z"/>
    <path class="cls-6" transform="translate(-5720.9 -6899.5)" d="M7346.94,7211.46c36,0,72,.06,108-.08,3.77,0,5.05.74,4.94,4.79-.3,12-.25,24,0,36,.07,3.59-1.05,4.35-4.46,4.33-27.16-.14-54.32,0-81.49-.18-3.87,0-4.53,1.09-4.53,4.69.12,55.64,0,111.28.2,166.93,0,4.37-1,5.59-5.42,5.45-11.48-.36-23-.34-34.48,0-4.33.12-5.52-.89-5.5-5.4.18-55.31.06-110.62.22-165.93,0-4.44-.94-5.79-5.62-5.75-26.82.25-53.65,0-80.48.22-3.76,0-4.76-.93-4.68-4.68q.39-17.74,0-35.48c-.08-3.81.78-5,4.84-5C7274.62,7211.53,7310.78,7211.46,7346.94,7211.46Z"/>
    <path class="cls-8" transform="translate(-5720.9 -6899.5)" d="m7228.8 7205.8h236.05c-3.61 2.38-232.08 2.47-236.05 0z"/>
    <path class="cls-6" transform="translate(-5720.9 -6899.5)" d="M8557.92,7140.33c-36,0-72-.06-108,.09-3.89,0-5-.94-5-4.91q.2-106.2,0-212.4c0-3.65.73-4.76,4.57-4.67q18,.44,36,0c4.11-.11,4.8,1.25,4.79,5-.11,55.3,0,110.61-.21,165.92,0,5,1.41,5.86,6.06,5.85,56.49-.17,113-.07,169.46-.2,4.19,0,5.78.69,5.61,5.36-.39,11.48-.4,23,0,34.48.17,4.86-1.56,5.59-5.87,5.57C8629.57,7140.26,8593.75,7140.33,8557.92,7140.33Z"/>
    <path class="cls-7" transform="translate(-5720.9 -6899.5)" d="m8494.9 7091.6c2.57-3.32 5-2.78 7.17-2.78q84.42 0 168.83 0c1.63 0 4.58-1 4.61 1.25s-2.92 1.47-4.63 1.47q-60.45 0.06-120.88 0h-55.1z"/>
    <path class="cls-9" transform="translate(-5720.9 -6899.5)" d="m8494.6 6913.9h-54.2v-1h54.33c-0.03 0.33-0.08 0.67-0.13 1z"/>
    <path transform="translate(-5720.9 -6899.5)" d="m7499.3 7433.7c-2.45 6.61-7.51 7.22-13.84 7.1-20.6-0.38-41.22-0.14-62.63-0.14 50.81-81.85 101.28-163.13 152.16-245.07 50.85 81.69 101.48 163 152.37 244.79h-229.7c0-2.21 2.23-3.47 2.61-5.55 0.28-2.62 2.2-4.44 3.3-6.66 3.21-5.29 6.64-10.44 9.83-15.75 1.27-2.4 3-4.53 4.31-6.88 1.63-3.21 4-6 5.7-9.12 0.7-1.43 1.7-2.69 2.43-4.09 1.73-3.38 4.2-6.28 6-9.6 1.57-3.52 4.34-4.44 8.06-4.42 23 0.11 46 0.07 68.94 0 1.74 0 3.64 0.62 5.6-1-12.86-20.95-25.82-41.82-39.37-63.24-14.91 22.85-28.13 46.07-43 68.2-1.86 3.26-4.18 6.23-6 9.49-0.7 1.42-1.66 2.69-2.42 4.08-1.63 3.21-4 6-5.7 9.12-1.26 2.41-3 4.53-4.31 6.9-3.14 5.35-6.56 10.53-9.85 15.79-1.36 2.19-2.39 4.52-4.49 6.05z"/>
    <path class="cls-5" transform="translate(-5720.9 -6899.5)" d="M7499.27,7433.73a22,22,0,0,1,3.81-6.19c.63.13.71.71.95,1.14a16.94,16.94,0,0,1-3.79,6.18Z"/>
    <path class="cls-6" transform="translate(-5720.9 -6899.5)" d="m7437.2 7432.7 137.83-221.93 138 221.69h-201.57l7.41-12c6-9.75 12.2-19.43 18.05-29.29 1.66-2.81 3.45-3.77 6.7-3.76 29 0.14 58 0.08 88.19 0.08l-56.78-91.19c-1.26 2-2.17 3.5-3.08 5q-39.6 63.78-79.12 127.58c-1.8 2.92-3.69 4-7.1 3.94-15.83-0.22-31.65-0.12-48.53-0.12z"/>
    <path class="cls-9" transform="translate(-5720.9 -6899.5)" d="m7536.6 7382.2h84v1.05h-83.94c-0.03-0.35-0.04-0.7-0.06-1.05z"/>
    <path class="cls-5" transform="translate(-5720.9 -6899.5)" d="M7504,7428.68l-.95-1.14q5-8,10-16c.63.14.73.76,1,1.19A147.12,147.12,0,0,1,7504,7428.68Z"/>
    <path class="cls-51" transform="translate(-5720.9 -6899.5)" d="m7524 7396.7-5.79 9.23c-0.64-0.15-0.74-0.77-1-1.21l5.81-9.25c0.66 0.14 0.75 0.76 0.98 1.23z"/>
    <path class="cls-52" transform="translate(-5720.9 -6899.5)" d="m7531.1 7382.6 1 1.09a48.63 48.63 0 0 1-5.76 9.29c-0.67-0.14-0.75-0.77-1-1.24a47.14 47.14 0 0 1 5.76-9.14z"/>
    <path class="cls-53" transform="translate(-5720.9 -6899.5)" d="M7517.21,7404.71l1,1.21-4.15,6.77c-.35-.39-.7-.79-1-1.19Z"/>
    <path class="cls-54" transform="translate(-5720.9 -6899.5)" d="m7525.3 7391.7 1 1.24-2.24 3.73-1-1.23c0.75-1.25 1.49-2.46 2.24-3.74z"/>
</svg>